<?xml version="1.0" standalone="no"?>
<!DOCTYPE svg PUBLIC "-//W3C//DTD SVG 20010904//EN"
 "http://www.w3.org/TR/2001/REC-SVG-20010904/DTD/svg10.dtd">
<svg version="1.0" xmlns="http://www.w3.org/2000/svg"
 viewBox="0 0 2600.000000 2600.000000"
 preserveAspectRatio="xMidYMid meet">
<metadata>
Created by potrace 1.15, written by Peter Selinger 2001-2017
</metadata>
<g transform="translate(0.000000,2600.000000) scale(0.100000,-0.100000)"
fill="#000000" stroke="none">
<path d="M11887 24075 c-169 -46 -308 -181 -357 -345 -14 -47 -56 -417 -150
-1328 -71 -695 -130 -1272 -130 -1282 0 -17 -17 -19 -282 -22 -261 -4 -288 -6
-342 -26 -167 -62 -300 -213 -335 -380 -55 -263 110 -528 370 -597 39 -11 114
-15 267 -15 116 0 212 -1 212 -3 0 -10 -271 -2631 -276 -2669 l-6 -48 -146 0
c-245 0 -348 -34 -468 -154 -103 -104 -154 -220 -154 -356 0 -175 87 -337 234
-432 84 -54 167 -77 308 -85 l118 -6 -1 -26 c0 -14 -62 -622 -137 -1351 l-138
-1325 -299 -6 c-271 -5 -306 -8 -366 -27 -186 -61 -320 -220 -350 -414 -38
-242 113 -482 350 -560 58 -19 95 -22 313 -26 l246 -4 -4 -32 c-5 -37 -274
-2649 -274 -2664 0 -6 -130 -11 -362 -14 -359 -4 -364 -4 -434 -29 -162 -59
-270 -166 -324 -323 -98 -285 82 -599 379 -662 48 -10 145 -14 349 -14 155 0
282 -3 282 -7 0 -13 -270 -2629 -275 -2670 l-6 -43 -435 0 -435 0 -75 -25
c-41 -14 -93 -37 -117 -52 -152 -95 -249 -290 -234 -468 12 -133 64 -242 160
-332 63 -59 106 -86 183 -115 56 -21 77 -22 452 -26 l392 -3 0 -26 c0 -14 -70
-700 -155 -1525 -85 -825 -155 -1534 -155 -1575 0 -84 32 -195 77 -266 44 -71
128 -144 207 -182 193 -93 412 -61 566 81 113 106 151 191 174 401 26 229 316
3050 316 3072 l0 21 2907 -2 2908 -3 161 -1565 c89 -861 166 -1595 173 -1633
30 -180 160 -334 337 -398 86 -32 235 -32 325 -1 208 71 349 264 349 476 0 53
-302 3027 -315 3099 l-4 27 367 0 c290 0 380 3 430 15 209 50 363 218 394 432
36 245 -124 484 -371 557 -46 14 -121 16 -487 16 l-433 0 -6 33 c-5 34 -275
2654 -275 2675 0 9 62 12 278 12 311 0 366 6 467 55 301 144 385 534 169 789
-40 47 -125 112 -173 133 -106 45 -113 45 -488 50 -200 3 -363 6 -363 8 0 11
-271 2637 -275 2666 l-5 37 248 4 c219 4 254 7 313 26 130 43 240 137 299 257
157 314 -33 678 -382 735 -35 5 -180 10 -323 10 l-260 0 -138 1338 c-76 735
-138 1344 -137 1353 0 13 20 17 118 22 141 8 224 31 308 85 179 116 271 345
219 547 -50 193 -202 340 -392 380 -41 9 -126 15 -215 15 l-147 0 -6 43 c-6
45 -275 2651 -275 2667 0 6 85 10 215 10 197 0 220 2 288 23 139 44 239 131
301 262 60 123 69 219 36 350 -24 94 -56 152 -126 225 -69 72 -142 115 -238
140 -69 17 -111 20 -333 20 -196 0 -253 3 -253 13 0 46 -262 2542 -271 2582
-39 174 -172 316 -346 372 -293 93 -602 -98 -655 -405 -11 -67 -5 -140 115
-1304 70 -678 127 -1239 127 -1245 0 -10 -257 -13 -1250 -13 l-1250 0 0 25 c0
13 57 568 126 1232 88 847 123 1226 119 1269 -19 213 -174 395 -380 449 -71
18 -192 18 -258 0z m3003 -4002 c0 -14 270 -2628 275 -2670 l6 -43 -1640 0
c-903 0 -1641 2 -1641 5 0 11 270 2624 276 2668 l6 47 1359 0 c747 0 1359 -3
1359 -7z m390 -3765 c0 -11 61 -609 135 -1328 74 -719 135 -1319 135 -1334 l0
-26 -2024 0 -2025 0 5 33 c6 43 274 2644 274 2662 0 13 225 15 1750 15 l1750
0 0 -22z m385 -3750 c5 -32 275 -2649 275 -2669 0 -5 -921 -9 -2410 -9 -1921
0 -2410 3 -2410 13 0 22 270 2652 275 2675 l5 22 2130 0 2129 0 6 -32z m385
-3718 c0 -19 270 -2635 276 -2672 l6 -38 -2802 0 -2802 0 6 48 c5 38 276 2659
276 2669 0 2 1134 3 2520 3 1670 0 2520 -3 2520 -10z"/>
</g>
</svg>
